<?xml version="1.0" encoding="UTF-8"?>
<svg width="600" height="270" version="1.1" xmlns="http://www.w3.org/2000/svg">
 <path stroke="white" d="m283.89 27.01v8.4151c-3e-5 20.751 0.0492 14.706 0.1476 17.387 0.1 2.2831 0.4969 4.045 1.1908 5.2859 0.4469 0.74538 1.2415 1.54 2.3839 2.3839-3e-5 -3e-5 -3.0778-3e-5 -9.2332 0-6.4539-3e-5 -9.6809-3e-5 -9.6809 0 0.79386-0.89388 1.5885-1.7627 2.3839-2.6066 0.94234-1.3408 1.4385-3.0535 1.4885-5.1381 0.1484-3.0285 0.2226 3.0917 0.2226-17.162v-8.7878c0-6.5024-0.0742-10.523-0.2226-12.062l-4.0223-0.15c-1.6877-0.0499-3.2762 0.49621-4.7655 1.6385-1.0923 0.8439-1.8619 1.787-2.3089 2.8293 0-0.69383 0.2234-1.6619 0.67038-2.9043 0.54692-1.5377 0.91963-2.7785 1.1181-3.7224 0.19839-0.64535 0.5704-2.1596 1.1158-4.5428 1.1423-0.0499 3.0785-0.0499 5.8085 0 3.177 0.10005 5.5601 0.15004 7.1493 0.14999 6.6024 5e-5 11.344-0.17417 14.224-0.52268 0.05 0.9939 0.52113 2.9551 1.4135 5.8835 0.54687 1.4393 1.168 3.3255 1.8634 5.6586-1.1924-1.4392-2.0862-2.3823-2.6816-2.8293-1.5893-1.1908-3.352-1.7369-5.2882-1.6385l-3.052 0.15c-2e-5 0.94237-2e-5 2.6051 0 4.9882 0.05 3.327 0.075 5.7593 0.075 7.297z"/>
 <path fill="white" d="m330.92 25.67v14.149c-3e-5 12.261 0.44613 19.136 1.3385 20.625h-12.212c0.79537-2.3331 1.193-5.2866 1.1931-8.8605v-18.616h-11.617l-0.075 17.128c-3e-5 4.9632 0.37267 8.4128 1.1181 10.349h-11.99c0.84385-2.2831 1.2658-5.0132 1.2658-8.1901v-26.436c0-6.1054-0.0492-9.9278-0.1476-11.467-0.1-2.4331-0.4727-4.5677-1.1181-6.4039 0.29844 5e-5 0.8446 5e-5 1.6385 0 0 5e-5 1.1416 5e-5 3.4247 0 4.5177 5e-5 6.7766 5e-5 6.7766 0-0.59541 2.0847-0.89311 4.8147-0.89309 8.1901v9.9786h11.617c0.0484-4.7162 0.0484-8.4885 0-11.317-0.05-2.6315-0.3727-4.9154-0.96808-6.8516 0.59538 5e-5 1.5385 5e-5 2.8293 0-3e-5 5e-5 1.0673 5e-5 3.202 0 4.0708 5e-5 6.1062 5e-5 6.1062 0-0.24839 0.49698-0.59617 1.6885-1.0431 3.5747-0.29699 2.7801-0.44544 7.4963-0.44542 14.149z"/>
 <path d="m350.6 34.31-0.1476 15.117c-3e-5 3.127 0.0239 4.8889 0.0726 5.2859 0.15 0.84386 0.6469 1.2658 1.4908 1.2658 0.2969 0 0.94231-0.0742 1.9362-0.2226 3.227-0.44692 5.3116-0.86885 6.254-1.2658 1.2408-0.54692 2.9285-1.9119 5.0632-4.0951-0.29699 2.2831-0.81814 5.6093-1.5635 9.9786h-11.244c0.05 0-2.3081-0.05-7.0743-0.14999-2.8785-0.05-5.2609 0-7.147 0.14999 0.39693-0.99385 0.64463-1.6892 0.74309-2.0862 0.24839-0.74386 0.3977-1.7119 0.4477-2.9043 0.1484-2.68 0.2226-7.7439 0.2226-15.192v-13.253c0-3.7238-0.0239-7.3977-0.0726-11.022-0.1-2.4815-0.24919-4.2192-0.4477-5.2131-0.1-0.54535-0.44767-1.4384-1.0431-2.6793 0.89385-0.0499 2.3089-0.0499 4.245 0 0 5e-5 2.1596 5e-5 6.4789 0 9.9278 5e-5 14.892 5e-5 14.892 0 0.05 0.0485-0.0742 1.3143-0.37267 3.7974-0.34696 2.6801-0.52044 4.0201-0.52041 4.0201-0.64543-0.99229-1.1666-1.5752-1.5635-1.7487-0.39696-0.17342-1.3151-0.31015-2.7543-0.41019-2.3346-0.14842-4.9912-0.17342-7.9697-0.075v14.446h3.5747c2.2846 3e-5 3.7246-0.0492 4.32-0.14771 0.94231-0.1 1.8604-0.42266 2.7543-0.96809v3.7224c-3e-5 3.227-3e-5 4.8405 0 4.8404-0.99236-0.79384-2.8293-1.1908-5.5108-1.1908z"/>
 <path d="m60.56 116.07v75.061c-6e-5 5.8709 1.0206 9.9234 3.062 12.158 2.0413 2.2342 5.8065 3.2227 11.296 2.9656 14.554-0.51033 21.832-16.339 21.832-47.485-8e-5 -9.8289-2.2985-19.467-6.8954-28.914-5.3606-10.85-11.679-16.274-18.957-16.274-0.25319 1e-4 -3.6991 0.82992-10.337 2.4894zm-0.19282-93.445v69.889c3.1906 1.5312 6.7649 2.2966 10.723 2.2966 4.4683 1e-4 8.4887-2.6802 12.061-8.0408 4.2151-6.1279 6.3227-14.042 6.3228-23.743-8e-5 -11.617-1.3402-21.191-4.0204-28.721-3.1946-9.0652-7.9181-13.407-14.171-13.025-2.6803 0.2573-6.3189 0.70532-10.916 1.344zm-31.69 18.191c-0.19095-9.3184-1.0519-16.722-2.5829-22.212-1.2778-3.7046-2.6199-7.4075-4.0262-11.109h51.318c11.364 2.1e-4 19.597 1.2137 24.701 3.6406 7.7875 3.8297 13.532 11.615 17.233 23.357 2.2984 7.406 3.4476 15.577 3.4477 24.514-1.1e-4 16.467-3.3816 29.232-10.144 38.293-4.2153 5.6178-9.0674 9.1298-14.556 10.536 5.2358 1.274 8.9387 2.4213 11.109 3.4419 4.4683 2.0454 8.1692 4.9828 11.103 8.8122 7.1486 9.1901 10.723 22.529 10.723 40.017-1.1e-4 24.383-6.2547 41.363-18.764 50.939-7.7877 6.1241-17.617 10.018-29.487 9.7647-14.297-0.25718-32.169 0.38177-53.615 0h-1.9167 0.5756-3.8305c5.1073-4.597 7.9161-12.768 8.4265-20.68z"/>
 <path d="m161.75 152.26-0.37983 38.872c-5e-5 8.0408 0.0622 12.572 0.18697 13.592 0.38565 2.1699 1.6634 3.2549 3.8334 3.2549 0.76354 3e-5 2.4231-0.19095 4.9788-0.57267 8.2979-1.1492 13.658-2.2342 16.082-3.2549 3.1905-1.4063 7.5304-4.9164 13.02-10.53-0.76364 5.8709-2.1038 15.955-4.0204 27.19h-65.483c1.0207-2.5556 1.6576-5.8748 1.9109-6.8954 0.63889-1.9128 1.0226-4.4022 1.1512-7.4681 0.38177-6.8915 0.57267-19.913 0.57267-39.064v-34.08c0-9.5756-0.0622-19.023-0.18696-28.341-0.25717-6.3811-0.64086-10.849-1.1512-13.405-0.25717-1.4023-1.1512-3.6989-2.6822-6.8896h65.869c0.12845 0.12473-0.19095 3.3797-0.95835 9.7647-0.8922 6.8917-1.3382 10.337-1.3382 10.337-1.6596-2.5516-2.9998-4.0505-4.0204-4.4967-1.0207-0.44595-3.3815-0.79753-7.0824-1.0548-6.0034-0.38166-12.835-0.44594-20.494-0.19281v37.148h9.192c5.8747 8e-5 9.5776-0.12659 11.109-0.37982 2.4231-0.25718 4.7839-1.0868 7.0824-2.4894v9.5718c-5e-5 8.298-5e-5 12.447 0 12.447-2.5518-2.0413-7.2753-3.062-14.171-3.062z"/>
 <path d="m231.47 165.28h17.805l-9.192-52.464zm40.975-0.57267c6.385 33.698 12.322 53.42 17.811 56.104h-37.341l2.4894-5.9371c-0.12872-3.5763-0.89412-11.683-2.2965-24.321h-25.087c-1.6596 8.2979-2.4894 14.554-2.4894 18.77-3e-5 4.5931 0.95832 9.7004 2.8751 11.489h-31.403c3.4438-1.9167 6.1884-8.0447 8.2336-15.322 1.531-4.9787 4.7859-19.531 9.7647-43.658l5.3586-25.659c5.2358-25.018 7.8538-39.187 7.8538-42.506-2e-5 -5.1072-1.7882-7.7212-5.3644-8.9991h43.85c-4.9788 1.7883-7.4682 4.9127-7.4681 10.53-5e-5 3.1907 0.82974 8.6155 2.4894 16.274z"/>
 <path d="m343.25 133.49v21.639c-8e-5 53.36 0.12659 58.787 0.37982 65.682 0.25718 5.8708 1.2778 35.102 3.0621 38.293 1.1492 1.9167 3.1925 3.96 6.1299 6.1299h-48.636c2.0414-2.2985 4.0847-4.5327 6.13-6.7026 2.4231-3.4478 3.699-32.36 3.8276-37.72 0.38174-7.7876 0.57264-13.214 0.57266-65.296v-22.597c-2e-5 -16.72-0.19095-27.06-0.57266-31.018l-10.343-0.38568c-4.3398-0.12845-8.4245 1.276-12.254 4.2132-2.8088 2.17-4.7878 4.5951-5.9371 7.2753 0-1.7842 0.57461-4.2735 1.7239-7.4681 1.4064-3.954 2.3647-7.1446 2.8751-9.5718 0.51033-1.6595 1.4667-5.1676 2.8692-11.296h69.895c0.12845 2.5557 1.34 6.2547 3.6347 13.785 1.4063 3.7011 3.0035 8.5513 4.7917 14.551-3.066-3.7008-5.3645-6.126-6.8954-7.2753-4.0867-3.0619-8.6194-4.4663-13.598-4.2132l-7.8479 0.38568c-6e-5 2.4233-6e-5 6.6988 0 12.827 0.12845 8.5551 0.19281 14.81 0.19281 18.764z"/>
 <path d="m399.54 130.82-0.37983 25.846v30.831c-5e-5 7.4058 0.19095 12.065 0.57267 13.978 0.76742 2.427 2.427 3.6406 4.9788 3.6406 1.4063 0 4.0242-0.38374 7.8538-1.1512 5.3605-1.0207 10.02-3.1906 13.978-6.5098 2.2984-2.2985 4.5326-4.5969 6.7026-6.8954-1.4064 7.024-3.0037 18.131-4.7918 30.258h-58.208c1.531-3.1945 2.4874-7.9181 2.8692-11.109 0.89601-5.4891 1.344-26.935 1.344-64.338v-36.382c0-10.85-1.2135-18.697-3.6405-24.315h32.555c-0.63891 1.1494-1.2778 1.9763-1.9167 3.252-0.63894 1.276-1.0226 2.9989-1.1512 5.1687-0.12473 1.1494-0.37986 13.725-0.76551 37.726z"/>
 <path d="m466.17 152.26-0.37983 38.872c-6e-5 8.0408 0.0622 12.572 0.18696 13.592 0.38565 2.1699 1.6634 3.2549 3.8334 3.2549 0.76354 3e-5 2.4231-0.19095 4.9788-0.57267 8.2979-1.1492 13.658-2.2342 16.082-3.2549 3.1905-1.4063 7.5304-4.9164 13.02-10.53-0.76365 5.8709-2.1038 15.955-4.0204 27.19h-65.483c1.0207-2.5556 1.6576-5.8748 1.9109-6.8954 0.63889-1.9128 1.0226-4.4022 1.1512-7.4681 0.38177-6.8915 0.57267-19.913 0.57267-39.064v-34.08c0-9.5756-0.0622-19.023-0.18697-28.341-0.25717-6.3811-0.64085-10.849-1.1512-13.405-0.25717-1.4023-1.1512-3.6989-2.6822-6.8896 12.547-0.0266 25.098-8e-3 37.649 0 9.4071 5e-3 18.814 1.6e-4 28.22 0 0.12846 0.12473-0.19095 3.3797-0.95834 9.7647-0.89221 6.8917-1.3383 10.337-1.3382 10.337-1.6596-2.5516-2.9998-4.0505-4.0204-4.4967-1.0207-0.44595-3.3815-0.79753-7.0824-1.0548-6.0034-0.38166-12.835-0.44594-20.494-0.19281v37.148h9.192c5.8747 8e-5 9.5776-0.12659 11.109-0.37982 2.4231-0.25718 4.7839-1.0868 7.0824-2.4894v9.5718c-6e-5 8.298-6e-5 12.447 0 12.447-2.5518-2.0413-7.2753-3.062-14.171-3.062z"/>
 <path d="m543.56 81.22c5.1034 0.12872 10.336 1.4377 15.699 3.9269 5.3624 2.4895 8.6183 3.7342 9.7676 3.7341 1.6595 1.3e-4 3.1905-0.89394 4.5931-2.6822-1.0207 3.7011-2.8712 10.657-5.5514 20.867-4.4685-4.2112-6.9578-6.572-7.4681-7.0824-3.701-2.4269-8.296-3.7671-13.785-4.0204-4.2152-0.12845-7.8538 1.1474-10.916 3.8276-3.701 3.1946-5.5514 7.7916-5.5514 13.791-2e-5 7.1488 2.9997 12.893 8.9992 17.233 6.2526 3.701 12.571 7.3377 18.957 10.91 15.318 9.194 22.977 20.94 22.977 35.237-8e-5 13.401-3.6387 23.933-10.916 31.596-7.7876 8.1694-18.957 12.254-33.507 12.254-8.298 0-15.32-2.3628-21.066-7.0883-6.3812-5.232-9.9556-12.252-10.723-21.06 0.12846-5.7462 1.3421-10.279 3.6406-13.598 1.7842-2.6802 3.699-4.0204 5.7442-4.0204 1.2739 5e-5 1.9108 0.63897 1.9109 1.9167-3e-5 0.89215-0.51036 1.9771-1.531 3.2549-0.3818 1.5311-0.57267 3.0621-0.57267 4.5931 0 5.2359 1.7872 9.864 5.3615 13.884 3.5743 4.0204 7.3405 6.1592 11.299 6.4163 7.7875 0.51036 13.883-1.1814 18.288-5.0752 4.4041-3.8938 6.6061-9.5435 6.6062-16.949-6e-5 -8.1693-3.8938-15.573-11.681-22.212-0.12846-0.12473-6.7026-4.145-19.722-12.061-9.3186-5.6176-15.127-13.405-17.426-23.363-1.531-7.02-1.2116-13.785 0.95837-20.295 5.4891-16.467 17.361-24.446 35.617-23.935z"/>
</svg>
